<?xml version="1.0" encoding="utf-8"?>
<!-- Generator: Adobe Illustrator 25.4.1, SVG Export Plug-In . SVG Version: 6.00 Build 0)  -->
<svg version="1.1" id="Layer_1" xmlns="http://www.w3.org/2000/svg" xmlns:xlink="http://www.w3.org/1999/xlink" x="0px" y="0px"
	 viewBox="0 0 128 128" style="enable-background:new 0 0 128 128;" xml:space="preserve">
<style type="text/css">
	.st0{fill:none;}
	.st1{fill:#205238;}
</style>
<g>
	<path class="st0" d="M97.47,116.82c0.26-0.32,0.47-0.62,0.64-0.91c0.32-0.58,0.48-1.17,0.48-1.78c0-0.76-0.24-1.38-0.71-1.85
		c-0.47-0.48-1.07-0.72-1.82-0.72c-0.77,0-1.4,0.25-1.89,0.76c-0.49,0.51-0.73,1.16-0.73,1.95l0.01,0.29h2.07
		c0-0.06-0.01-0.12-0.01-0.17c0-0.05,0-0.09,0-0.12c0-0.64,0.17-0.96,0.51-0.96c0.15,0,0.27,0.06,0.36,0.19
		c0.09,0.13,0.13,0.3,0.13,0.51c0,0.39-0.09,0.77-0.28,1.14c-0.1,0.2-0.23,0.42-0.39,0.68c-0.17,0.26-0.37,0.55-0.62,0.87
		l-2.15,2.87h5.42v-1.81c-0.34,0-0.67,0.01-1,0.02s-0.65,0.03-0.97,0.05C96.89,117.47,97.21,117.14,97.47,116.82z"/>
	<path class="st0" d="M102.18,111.55c-0.86,0-1.54,0.36-2.05,1.08c-0.5,0.72-0.76,1.69-0.76,2.93c0,1.31,0.25,2.32,0.76,3.05
		c0.51,0.73,1.21,1.1,2.1,1.1c0.83,0,1.48-0.36,1.97-1.09c0.49-0.73,0.73-1.71,0.73-2.94c0-1.29-0.24-2.3-0.73-3.03
		C103.72,111.92,103.05,111.55,102.18,111.55z M102.67,117.33c-0.11,0.35-0.29,0.53-0.53,0.53c-0.45,0-0.67-0.81-0.67-2.44
		c0-1.36,0.23-2.04,0.68-2.04c0.46,0,0.69,0.76,0.69,2.28C102.84,116.42,102.78,116.97,102.67,117.33z"/>
	<path class="st0" d="M107.53,14.39c0,0.66,0.26,1.23,0.78,1.69c0.52,0.46,1.15,0.69,1.9,0.69c0.77,0,1.41-0.22,1.92-0.67
		c0.51-0.45,0.77-1.02,0.77-1.71c0-0.88-0.41-1.5-1.22-1.86c0.38-0.19,0.65-0.42,0.82-0.69c0.17-0.27,0.26-0.61,0.26-1.02
		c0-0.63-0.25-1.15-0.74-1.58c-0.48-0.42-1.1-0.63-1.84-0.63c-0.72,0-1.32,0.21-1.79,0.64c-0.47,0.43-0.7,0.97-0.7,1.63
		c0,0.83,0.39,1.38,1.18,1.65C107.98,12.88,107.53,13.5,107.53,14.39z M109.9,10.48c0.08-0.12,0.18-0.18,0.32-0.18
		c0.14,0,0.24,0.06,0.33,0.19c0.08,0.13,0.12,0.29,0.12,0.5c0,0.46-0.15,0.68-0.44,0.68c-0.3,0-0.44-0.24-0.44-0.72
		C109.79,10.76,109.82,10.6,109.9,10.48z M109.74,13.84c0.03-0.1,0.06-0.19,0.11-0.26c0.05-0.07,0.1-0.13,0.16-0.17
		c0.06-0.04,0.13-0.06,0.21-0.06c0.35,0,0.52,0.27,0.52,0.8c0,0.12-0.01,0.23-0.04,0.32c-0.03,0.1-0.06,0.18-0.1,0.25
		c-0.04,0.07-0.1,0.12-0.16,0.16c-0.06,0.04-0.13,0.06-0.21,0.06c-0.16,0-0.28-0.07-0.38-0.21c-0.1-0.14-0.15-0.33-0.15-0.56
		C109.7,14.05,109.71,13.94,109.74,13.84z"/>
	<path class="st0" d="M90.5,54.85c-4.66,0-8.95,1.56-12.42,4.16V31.53h-8.36v44.09v20.77h8.36v-4.16c3.47,2.6,7.76,4.16,12.42,4.16
		c11.46,0,20.78-9.32,20.78-20.77C111.28,64.17,101.96,54.85,90.5,54.85z M90.5,88.04c-6.85,0-12.42-5.57-12.42-12.42
		s5.57-12.42,12.42-12.42c6.85,0,12.42,5.57,12.42,12.42S97.35,88.04,90.5,88.04z"/>
	<path class="st0" d="M40.58,31.53H28.15H19.8v41.54v23.32h8.36V73.07h12.42c11.46,0,20.78-9.32,20.78-20.77
		C61.36,40.84,52.04,31.53,40.58,31.53z M40.58,64.71H28.15V39.88h12.42C47.43,39.88,53,45.45,53,52.3S47.43,64.71,40.58,64.71z"/>
	<path class="st0" d="M116.69,8.61c-0.77,0-1.4,0.25-1.89,0.76c-0.49,0.51-0.73,1.16-0.73,1.95l0.01,0.29h2.07
		c0-0.06-0.01-0.12-0.01-0.17c0-0.05,0-0.09,0-0.12c0-0.64,0.17-0.96,0.51-0.96c0.15,0,0.27,0.06,0.36,0.19
		c0.09,0.13,0.13,0.3,0.13,0.51c0,0.39-0.09,0.77-0.28,1.14c-0.1,0.2-0.23,0.42-0.39,0.68c-0.17,0.26-0.37,0.55-0.62,0.87
		l-2.15,2.87h5.42v-1.81c-0.34,0-0.67,0.01-1,0.02c-0.32,0.01-0.65,0.03-0.97,0.05c0.37-0.35,0.69-0.68,0.95-1
		c0.26-0.32,0.47-0.62,0.64-0.91c0.32-0.58,0.48-1.17,0.48-1.78c0-0.76-0.24-1.38-0.71-1.85C118.04,8.85,117.43,8.61,116.69,8.61z"
		/>
	<path class="st0" d="M118.1,116.82c0.26-0.32,0.47-0.62,0.64-0.91c0.32-0.58,0.48-1.17,0.48-1.78c0-0.76-0.24-1.38-0.71-1.85
		c-0.47-0.48-1.07-0.72-1.82-0.72c-0.77,0-1.4,0.25-1.89,0.76c-0.49,0.51-0.73,1.16-0.73,1.95l0.01,0.29h2.07
		c0-0.06-0.01-0.12-0.01-0.17c0-0.05,0-0.09,0-0.12c0-0.64,0.17-0.96,0.51-0.96c0.15,0,0.27,0.06,0.36,0.19
		c0.09,0.13,0.13,0.3,0.13,0.51c0,0.39-0.09,0.77-0.28,1.14c-0.1,0.2-0.23,0.42-0.39,0.68c-0.17,0.26-0.37,0.55-0.62,0.87
		l-2.15,2.87h5.42v-1.81c-0.34,0-0.67,0.01-1,0.02s-0.65,0.03-0.97,0.05C117.52,117.47,117.84,117.14,118.1,116.82z"/>
	<path class="st0" d="M111.77,117.3c-0.33,0-0.61,0.12-0.84,0.35c-0.23,0.23-0.35,0.51-0.35,0.84c0,0.33,0.12,0.62,0.35,0.85
		c0.24,0.23,0.53,0.35,0.85,0.35c0.33,0,0.61-0.11,0.84-0.34c0.23-0.23,0.35-0.5,0.35-0.82c0-0.34-0.12-0.63-0.35-0.86
		C112.39,117.42,112.11,117.3,111.77,117.3z"/>
	<path class="st1" d="M102.15,113.39c-0.46,0-0.68,0.68-0.68,2.04c0,1.62,0.22,2.44,0.67,2.44c0.24,0,0.42-0.18,0.53-0.53
		c0.11-0.36,0.17-0.91,0.17-1.67C102.84,114.15,102.61,113.39,102.15,113.39z"/>
	<path class="st1" d="M90.5,63.21c-6.85,0-12.42,5.57-12.42,12.42s5.57,12.42,12.42,12.42c6.85,0,12.42-5.57,12.42-12.42
		S97.35,63.21,90.5,63.21z"/>
	<path class="st1" d="M40.58,39.88H28.15v24.83h12.42C47.43,64.71,53,59.14,53,52.3S47.43,39.88,40.58,39.88z"/>
	<path class="st1" d="M110.23,11.67c0.29,0,0.44-0.23,0.44-0.68c0-0.21-0.04-0.37-0.12-0.5c-0.08-0.13-0.19-0.19-0.33-0.19
		c-0.13,0-0.24,0.06-0.32,0.18c-0.08,0.12-0.12,0.28-0.12,0.47C109.79,11.43,109.93,11.67,110.23,11.67z"/>
	<path class="st1" d="M0,0v128h128V0H0z M107.69,10.88c0-0.66,0.23-1.2,0.7-1.63c0.47-0.43,1.07-0.64,1.79-0.64
		c0.74,0,1.35,0.21,1.84,0.63c0.49,0.42,0.74,0.95,0.74,1.58c0,0.41-0.09,0.75-0.26,1.02c-0.17,0.27-0.44,0.5-0.82,0.69
		c0.81,0.35,1.22,0.97,1.22,1.86c0,0.69-0.26,1.26-0.77,1.71c-0.51,0.45-1.15,0.67-1.92,0.67c-0.75,0-1.38-0.23-1.9-0.69
		c-0.52-0.46-0.78-1.02-0.78-1.69c0-0.88,0.45-1.5,1.34-1.86C108.08,12.26,107.69,11.71,107.69,10.88z M40.58,73.07H28.15v23.32
		H19.8V73.07V31.53h8.36h12.42c11.46,0,20.78,9.32,20.78,20.77C61.36,63.75,52.04,73.07,40.58,73.07z M97.49,117.77
		c0.32-0.01,0.66-0.02,1-0.02v1.81h-5.42l2.15-2.87c0.24-0.33,0.45-0.62,0.62-0.87c0.17-0.26,0.3-0.48,0.39-0.68
		c0.19-0.37,0.28-0.75,0.28-1.14c0-0.21-0.04-0.38-0.13-0.51c-0.09-0.13-0.21-0.19-0.36-0.19c-0.34,0-0.51,0.32-0.51,0.96
		c0,0.03,0,0.07,0,0.12c0,0.05,0,0.1,0.01,0.17h-2.07l-0.01-0.29c0-0.79,0.24-1.44,0.73-1.95c0.49-0.51,1.12-0.76,1.89-0.76
		c0.74,0,1.35,0.24,1.82,0.72c0.47,0.47,0.71,1.09,0.71,1.85c0,0.61-0.16,1.21-0.48,1.78c-0.16,0.29-0.37,0.59-0.64,0.91
		c-0.26,0.32-0.58,0.65-0.95,1C96.84,117.8,97.16,117.78,97.49,117.77z M104.2,118.62c-0.49,0.72-1.15,1.09-1.97,1.09
		c-0.89,0-1.6-0.37-2.1-1.1c-0.5-0.73-0.76-1.74-0.76-3.05c0-1.23,0.25-2.21,0.76-2.93c0.51-0.72,1.19-1.08,2.05-1.08
		c0.87,0,1.54,0.37,2.03,1.1c0.49,0.73,0.73,1.74,0.73,3.03C104.94,116.91,104.69,117.89,104.2,118.62z M90.5,96.39
		c-4.66,0-8.95-1.56-12.42-4.16v4.16h-8.36V75.62V31.53h8.36v27.48c3.47-2.6,7.76-4.16,12.42-4.16c11.46,0,20.78,9.32,20.78,20.77
		C111.28,87.07,101.96,96.39,90.5,96.39z M105.46,119.57l2.91-6.02h-2.67v-1.85h5.59l-3.54,7.87H105.46z M112.63,119.34
		c-0.23,0.23-0.51,0.34-0.84,0.34c-0.33,0-0.61-0.12-0.85-0.35c-0.23-0.23-0.35-0.52-0.35-0.85c0-0.33,0.12-0.6,0.35-0.84
		c0.23-0.23,0.51-0.35,0.84-0.35c0.34,0,0.62,0.12,0.86,0.36c0.23,0.23,0.35,0.52,0.35,0.86
		C112.98,118.83,112.86,119.11,112.63,119.34z M118.12,117.77c0.32-0.01,0.66-0.02,1-0.02v1.81h-5.42l2.15-2.87
		c0.24-0.33,0.45-0.62,0.62-0.87c0.17-0.26,0.3-0.48,0.39-0.68c0.19-0.37,0.28-0.75,0.28-1.14c0-0.21-0.04-0.38-0.13-0.51
		c-0.09-0.13-0.21-0.19-0.36-0.19c-0.34,0-0.51,0.32-0.51,0.96c0,0.03,0,0.07,0,0.12c0,0.05,0,0.1,0.01,0.17h-2.07l-0.01-0.29
		c0-0.79,0.24-1.44,0.73-1.95c0.49-0.51,1.12-0.76,1.89-0.76c0.74,0,1.35,0.24,1.82,0.72c0.47,0.47,0.71,1.09,0.71,1.85
		c0,0.61-0.16,1.21-0.48,1.78c-0.16,0.29-0.37,0.59-0.64,0.91c-0.26,0.32-0.58,0.65-0.95,1
		C117.47,117.8,117.79,117.78,118.12,117.77z M118.73,12.97c-0.16,0.29-0.37,0.59-0.64,0.91c-0.26,0.32-0.58,0.65-0.95,1
		c0.32-0.02,0.64-0.04,0.97-0.05c0.32-0.01,0.66-0.02,1-0.02v1.81h-5.42l2.15-2.87c0.24-0.33,0.45-0.62,0.62-0.87
		c0.17-0.26,0.3-0.48,0.39-0.68c0.19-0.37,0.28-0.75,0.28-1.14c0-0.21-0.04-0.38-0.13-0.51c-0.09-0.13-0.21-0.19-0.36-0.19
		c-0.34,0-0.51,0.32-0.51,0.96c0,0.03,0,0.07,0,0.12c0,0.05,0,0.1,0.01,0.17h-2.07l-0.01-0.29c0-0.79,0.24-1.44,0.73-1.95
		c0.49-0.51,1.12-0.76,1.89-0.76c0.74,0,1.35,0.24,1.82,0.72c0.47,0.47,0.71,1.09,0.71,1.85C119.22,11.8,119.06,12.39,118.73,12.97z
		"/>
	<path class="st1" d="M110.22,14.95c0.07,0,0.14-0.02,0.21-0.06c0.06-0.04,0.12-0.09,0.16-0.16c0.04-0.07,0.08-0.15,0.1-0.25
		c0.03-0.1,0.04-0.2,0.04-0.32c0-0.53-0.17-0.8-0.52-0.8c-0.07,0-0.14,0.02-0.21,0.06c-0.06,0.04-0.12,0.1-0.16,0.17
		c-0.05,0.07-0.08,0.16-0.11,0.26c-0.03,0.1-0.04,0.21-0.04,0.33c0,0.23,0.05,0.42,0.15,0.56
		C109.94,14.88,110.07,14.95,110.22,14.95z"/>
</g>
</svg>
